<svg viewBox="0 0 362 356" fill="none" xmlns="http://www.w3.org/2000/svg" style="max-width: 362px; max-height: 356px;"><path fill-rule="evenodd" clip-rule="evenodd" d="M199.182 274.982L200.371 316.431L309.611 261.12C310.744 260.546 311.409 259.299 311.402 257.762L310.728 114.221C310.724 113.471 310.56 112.685 310.249 111.924L298.646 83.5288C298.116 82.5063 297.441 81.7325 296.777 81.1555C295.582 80.1171 294.423 79.7161 294.217 79.6501C294.201 79.6451 294.185 79.6403 294.17 79.6355L294.151 79.63L256.352 68.0605C255.579 67.8239 254.818 67.811 254.146 68.023L216.91 79.7589L204.232 53.516L168.441 43.1571C167.763 42.9609 167.095 42.937 166.49 43.0872L72.8746 66.3199C72.5649 66.3176 72.3134 66.3886 72.1097 66.5097L72.8746 66.3199C73.1456 66.3219 73.4611 66.38 73.8281 66.5097L192.304 108.478C194.24 109.181 195.406 110.68 195.958 112.274C196.26 113.148 196.379 114.051 196.338 114.867C196.315 115.312 195.812 121.081 195.013 130.224C195.013 130.227 195.012 130.229 195.012 130.232C193.301 149.819 190.238 184.881 187.66 216.265C185.605 241.284 183.857 265.963 183.348 273.257C183.284 274.178 184.214 275.083 184.965 274.837L195.292 271.459C196.991 270.903 199.12 272.832 199.182 274.982ZM74.012 231.31C75.7784 230.911 77.8175 232.981 77.7333 235.088C77.8175 232.981 75.7782 230.911 74.012 231.31Z" fill="#07080A"></path><path d="M204.232 53.516L155.843 68.6713C155.412 68.8063 155.561 69.5634 156.055 69.7468L197.491 85.1402C198.505 85.5167 199.515 85.5615 200.392 85.2687L216.91 79.7589M204.232 53.516L216.91 79.7589M204.232 53.516L168.441 43.1571M216.91 79.7589L254.146 68.023M195.958 112.274C196.26 113.148 196.379 114.051 196.338 114.867C196.315 115.312 195.812 121.081 195.013 130.224M195.958 112.274C195.406 110.68 194.24 109.181 192.304 108.478L73.8281 66.5097C73.4611 66.38 73.1456 66.3219 72.8746 66.3199M195.958 112.274L296.777 81.1555M296.777 81.1555C297.441 81.7325 298.116 82.5063 298.646 83.5288L310.249 111.924M296.777 81.1555C295.582 80.1171 294.423 79.7161 294.217 79.6501M187.66 216.265C185.605 241.284 183.857 265.963 183.348 273.257M187.66 216.265C190.238 184.881 193.301 149.819 195.012 130.232M187.66 216.265L79.9656 271.754C78.905 272.3 77.6712 272.33 76.8691 270.941V270.941C76.5827 270.445 76.3578 269.516 76.3781 269.007L77.7333 235.088M72.1097 66.5097C71.5517 66.8416 71.352 67.5501 71.2956 68.16L62.4667 231.976M72.1097 66.5097C72.3134 66.3886 72.5649 66.3176 72.8746 66.3199M72.1097 66.5097L72.8746 66.3199M199.182 274.982L200.371 316.431L309.611 261.12M199.182 274.982C199.12 272.832 196.991 270.903 195.292 271.459M199.182 274.982V274.982C199.12 272.832 196.99 270.903 195.292 271.459V271.459M195.292 271.459L184.965 274.837M184.965 274.837C184.214 275.083 183.284 274.178 183.348 273.257M184.965 274.837V274.837C184.217 275.082 183.284 274.175 183.348 273.257V273.257M77.7333 235.088C77.8175 232.981 75.7784 230.911 74.012 231.31M77.7333 235.088V235.088C77.8175 232.981 75.7782 230.911 74.012 231.31V231.31M74.012 231.31L64.0165 233.567M64.0165 233.567C63.2742 233.735 62.4193 232.857 62.4667 231.976M64.0165 233.567V233.567C63.2743 233.735 62.4193 232.857 62.4667 231.976V231.976M72.8746 66.3199L166.49 43.0872M166.49 43.0872C167.095 42.937 167.763 42.9609 168.441 43.1571M166.49 43.0872V43.0872C167.095 42.937 167.763 42.9609 168.441 43.1571V43.1571M254.146 68.023C254.818 67.811 255.579 67.8239 256.352 68.0605M254.146 68.023V68.023C254.818 67.811 255.579 67.8239 256.352 68.0605V68.0605M256.352 68.0605L294.151 79.63L294.17 79.6355M294.17 79.6355C294.185 79.6403 294.201 79.6451 294.217 79.6501M294.17 79.6355V79.6355C294.179 79.6385 294.189 79.6414 294.198 79.6444C294.203 79.6459 294.209 79.6478 294.217 79.6501M310.249 111.924C310.56 112.685 310.724 113.471 310.728 114.221M310.249 111.924V111.924C310.56 112.685 310.724 113.471 310.728 114.221V114.221M310.728 114.221L311.402 257.762M311.402 257.762C311.409 259.299 310.744 260.546 309.611 261.12M311.402 257.762V257.762C311.409 259.299 310.744 260.546 309.611 261.12V261.12M195.013 130.224L195.012 130.232M195.013 130.224C195.013 130.227 195.012 130.229 195.012 130.232" stroke="#545454" stroke-width="0.510966"></path><path d="M168.51 66.8303L157.79 70.3498L198.654 85.4124C198.91 85.5065 199.19 85.5105 199.448 85.4238L211.381 81.4102L170.572 66.8564C169.907 66.6191 169.181 66.6099 168.51 66.8303Z" stroke="#545454" stroke-width="0.510966"></path><path fill-rule="evenodd" clip-rule="evenodd" d="M220.484 291.127C220.484 291.027 220.54 290.935 220.63 290.89L234.733 283.754C234.909 283.665 235.118 283.793 235.118 283.991V284.792C235.118 284.892 235.062 284.984 234.973 285.029L220.869 292.193C220.693 292.283 220.484 292.154 220.484 291.957V291.127ZM237.463 283.764C237.286 283.854 237.077 283.726 237.077 283.528V282.731C237.077 282.631 237.134 282.539 237.223 282.494L251.331 275.355C251.508 275.266 251.716 275.394 251.716 275.592V276.361C251.716 276.461 251.66 276.552 251.571 276.598L237.463 283.764ZM251.716 277.92C251.716 277.723 251.508 277.594 251.331 277.684L237.223 284.822C237.134 284.867 237.077 284.959 237.077 285.059V285.856C237.077 286.054 237.286 286.182 237.463 286.092L251.571 278.926C251.66 278.881 251.716 278.789 251.716 278.689V277.92ZM254.061 277.661C253.884 277.751 253.675 277.622 253.675 277.424V276.66C253.675 276.56 253.732 276.469 253.821 276.424L267.926 269.286C268.103 269.197 268.311 269.325 268.311 269.523V270.259C268.311 270.359 268.255 270.451 268.166 270.496L254.061 277.661ZM270.656 269.231C270.48 269.321 270.271 269.193 270.271 268.995V268.263C270.271 268.163 270.327 268.072 270.416 268.027L279.22 263.572C279.397 263.482 279.605 263.611 279.605 263.809V264.522C279.605 264.622 279.549 264.714 279.46 264.759L270.656 269.231ZM279.605 266.12C279.605 265.922 279.397 265.794 279.22 265.883L270.416 270.338C270.327 270.383 270.271 270.474 270.271 270.574V271.306C270.271 271.504 270.48 271.632 270.656 271.542L279.46 267.07C279.549 267.025 279.605 266.933 279.605 266.834V266.12ZM281.95 265.805C281.774 265.895 281.565 265.767 281.565 265.569V264.86C281.565 264.76 281.621 264.668 281.71 264.623L307.211 251.72C307.387 251.631 307.596 251.759 307.596 251.957V252.615C307.596 252.715 307.54 252.807 307.451 252.852L281.95 265.805ZM279.605 268.475C279.605 268.277 279.397 268.149 279.22 268.238L270.416 272.693C270.327 272.738 270.271 272.83 270.271 272.93V273.661C270.271 273.859 270.48 273.987 270.656 273.898L279.46 269.426C279.549 269.38 279.605 269.289 279.605 269.189V268.475ZM281.95 268.161C281.774 268.251 281.565 268.122 281.565 267.924V267.215C281.565 267.115 281.621 267.024 281.71 266.978L307.313 254.024C307.489 253.934 307.698 254.063 307.698 254.26V254.919C307.698 255.019 307.642 255.11 307.553 255.155L281.95 268.161ZM279.605 270.787C279.605 270.589 279.397 270.461 279.22 270.55L270.416 275.005C270.327 275.05 270.271 275.142 270.271 275.242V275.973C270.271 276.171 270.48 276.3 270.656 276.21L279.46 271.738C279.549 271.693 279.605 271.601 279.605 271.501V270.787ZM281.95 270.473C281.774 270.563 281.565 270.434 281.565 270.236V269.527C281.565 269.427 281.621 269.336 281.71 269.29L307.327 256.328C307.504 256.239 307.713 256.367 307.713 256.565V257.224C307.713 257.324 307.656 257.415 307.567 257.46L281.95 270.473ZM281.95 263.494C281.774 263.584 281.565 263.456 281.565 263.258V262.549C281.565 262.449 281.621 262.357 281.71 262.312L307.198 249.415C307.375 249.326 307.583 249.454 307.583 249.652V250.311C307.583 250.41 307.527 250.502 307.438 250.547L281.95 263.494ZM281.565 260.93C281.565 261.127 281.774 261.256 281.95 261.166L307.438 248.219C307.527 248.174 307.583 248.082 307.583 247.982V247.324C307.583 247.126 307.375 246.998 307.198 247.087L281.71 259.984C281.621 260.029 281.565 260.12 281.565 260.221V260.93ZM279.605 261.48C279.605 261.283 279.397 261.154 279.22 261.244L270.416 265.698C270.327 265.744 270.271 265.835 270.271 265.935V266.666C270.271 266.864 270.48 266.993 270.656 266.903L279.46 262.431C279.549 262.386 279.605 262.294 279.605 262.194V261.48ZM253.675 278.972C253.675 278.872 253.732 278.78 253.821 278.735L267.926 271.598C268.103 271.508 268.311 271.637 268.311 271.834V272.571C268.311 272.67 268.255 272.762 268.166 272.807L254.061 279.972C253.884 280.062 253.675 279.934 253.675 279.736V278.972ZM253.675 281.327C253.675 281.227 253.732 281.135 253.821 281.09L267.926 273.953C268.103 273.864 268.311 273.992 268.311 274.19V274.926C268.311 275.026 268.255 275.117 268.166 275.163L254.061 282.328C253.884 282.417 253.675 282.289 253.675 282.091V281.327ZM253.675 283.639C253.675 283.539 253.732 283.447 253.821 283.402L267.926 276.265C268.103 276.176 268.311 276.304 268.311 276.502V277.238C268.311 277.338 268.255 277.429 268.166 277.475L252.178 285.596L253.54 284.836C253.623 284.789 253.675 284.7 253.675 284.604V283.639ZM268.166 268.168C268.255 268.123 268.311 268.031 268.311 267.931V267.195C268.311 266.997 268.103 266.869 267.926 266.958L253.821 274.096C253.732 274.141 253.675 274.232 253.675 274.332V275.096C253.675 275.294 253.884 275.423 254.061 275.333L268.166 268.168ZM251.716 280.231C251.716 280.034 251.508 279.905 251.331 279.995L237.223 287.133C237.134 287.179 237.077 287.27 237.077 287.37V288.167C237.077 288.365 237.286 288.493 237.463 288.403L251.571 281.237C251.66 281.192 251.716 281.1 251.716 281V280.231ZM251.716 282.587C251.716 282.389 251.508 282.261 251.331 282.35L237.223 289.489C237.134 289.534 237.077 289.625 237.077 289.725V290.522C237.077 290.72 237.286 290.849 237.463 290.759L251.571 283.592C251.66 283.547 251.716 283.456 251.716 283.356V282.587ZM251.716 284.899C251.716 284.701 251.508 284.573 251.331 284.662L237.223 291.801C237.134 291.846 237.077 291.938 237.077 292.038V292.835C237.077 293.033 237.286 293.161 237.463 293.071L251.571 285.905C251.66 285.859 251.716 285.768 251.716 285.668V284.899ZM220.484 293.455C220.484 293.355 220.54 293.264 220.63 293.218L234.733 286.082C234.909 285.993 235.118 286.121 235.118 286.319V287.121C235.118 287.22 235.062 287.312 234.973 287.357L220.869 294.521C220.693 294.611 220.484 294.483 220.484 294.285V293.455ZM220.484 295.766C220.484 295.666 220.54 295.575 220.63 295.53L234.733 288.393C234.909 288.304 235.118 288.432 235.118 288.63V289.432C235.118 289.532 235.062 289.623 234.973 289.668L220.869 296.832C220.693 296.922 220.484 296.794 220.484 296.596V295.766ZM220.484 298.122C220.484 298.022 220.54 297.93 220.63 297.885L234.733 290.749C234.909 290.659 235.118 290.788 235.118 290.985V291.787C235.118 291.887 235.062 291.979 234.973 292.024L220.869 299.188C220.693 299.278 220.484 299.149 220.484 298.951V298.122ZM220.484 300.434C220.484 300.334 220.54 300.242 220.63 300.197L234.733 293.061C234.909 292.971 235.118 293.1 235.118 293.297V294.099C235.118 294.199 235.062 294.291 234.973 294.336L220.869 301.5C220.693 301.59 220.484 301.461 220.484 301.263V300.434ZM218.525 292.387C218.525 292.189 218.316 292.061 218.14 292.15L203.814 299.399C203.725 299.444 203.669 299.535 203.669 299.635V300.498C203.669 300.696 203.878 300.824 204.054 300.735L218.38 293.458C218.469 293.413 218.525 293.321 218.525 293.221V292.387ZM218.525 294.715C218.525 294.517 218.316 294.389 218.14 294.478L203.814 301.727C203.725 301.772 203.669 301.863 203.669 301.963V302.826C203.669 303.024 203.878 303.152 204.054 303.063L218.38 295.786C218.469 295.741 218.525 295.649 218.525 295.549V294.715ZM218.525 297.026C218.525 296.828 218.316 296.7 218.14 296.789L203.827 304.031C203.738 304.077 203.682 304.168 203.682 304.268L203.682 305.131C203.682 305.329 203.891 305.457 204.067 305.367L218.38 298.097C218.469 298.052 218.525 297.96 218.525 297.861V297.026ZM218.525 299.381C218.525 299.184 218.316 299.055 218.14 299.145L203.929 306.335C203.84 306.38 203.784 306.472 203.784 306.572V307.435C203.784 307.633 203.993 307.761 204.169 307.671L218.38 300.453C218.469 300.407 218.525 300.316 218.525 300.216V299.381ZM218.525 301.694C218.525 301.496 218.316 301.368 218.14 301.457L203.944 308.64C203.855 308.685 203.798 308.777 203.798 308.877L203.798 309.739C203.798 309.937 204.007 310.065 204.184 309.976L218.38 302.765C218.469 302.72 218.525 302.628 218.525 302.528V301.694Z" fill="#1C1E24"></path><path d="M181.11 112.121C184.024 113.145 186.23 116.581 185.947 119.656L170.217 290.623L183.729 286.177C185.691 285.532 188.151 287.77 188.209 290.251L188.945 321.683L200.297 316.496L199.128 275.752C199.058 273.277 196.607 271.056 194.652 271.695L185.195 274.79C184.323 275.076 183.246 274.005 183.334 272.941L196.319 115.693C196.572 112.632 194.377 109.236 191.486 108.214L72.7358 66.2477C71.8544 65.9362 70.977 65.8755 70.1892 66.0714L58.4181 68.9996L181.11 112.121Z" fill="#07080A"></path><path d="M170.217 290.623C165.377 291.718 161.516 289.182 161.516 289.182L75.8282 254.07L75.8282 267.234C75.8282 270.03 77.7393 272.963 80.2884 274.08L188.945 321.683L188.209 290.251C188.151 287.77 185.691 285.532 183.729 286.177L170.217 290.623Z" fill="#07080A"></path><path d="M171.394 118.417C174.277 119.469 176.444 122.871 176.171 125.918L161.516 289.182C161.516 289.182 165.377 291.718 170.217 290.623L185.947 119.656C186.23 116.581 184.024 113.145 181.11 112.121L58.4181 68.9996C54.4996 70.5554 52.2899 76.1447 52.2899 76.1447C52.7926 75.6964 53.602 75.4617 54.903 75.9361L171.394 118.417Z" fill="#07080A"></path><path d="M161.516 289.182L176.171 125.918C176.444 122.871 174.277 119.469 171.394 118.417L54.903 75.9361C53.602 75.4617 52.7926 75.6964 52.2899 76.1447C51.6565 76.7481 51.5143 77.5379 51.483 77.8228C51.4751 77.8945 51.4719 77.9677 51.4671 78.0406L41.1404 234.445C40.9466 237.38 42.9744 240.607 45.7183 241.732L75.8282 254.07L161.516 289.182Z" fill="#07080A"></path><path d="M161.516 289.182L176.171 125.918C176.444 122.871 174.277 119.469 171.393 118.417L54.903 75.9361C53.602 75.4617 52.7926 75.6964 52.2899 76.1447M161.516 289.182C161.516 289.182 165.377 291.718 170.217 290.623M161.516 289.182L75.8282 254.07M170.217 290.623L185.947 119.656C186.23 116.581 184.024 113.145 181.11 112.121L58.4181 68.9996M170.217 290.623L183.729 286.177C185.691 285.532 188.151 287.77 188.209 290.251L188.945 321.683M188.945 321.683L80.2884 274.08C77.7393 272.963 75.8282 270.03 75.8282 267.234L75.8282 254.07M188.945 321.683L200.297 316.496L199.128 275.752C199.058 273.277 196.607 271.056 194.652 271.695L185.195 274.79C184.323 275.076 183.246 274.005 183.334 272.941L196.319 115.693C196.572 112.632 194.377 109.236 191.486 108.214L72.7358 66.2477C71.8544 65.9362 70.977 65.8755 70.1892 66.0714L58.4181 68.9996M75.8282 254.07L45.7183 241.732C42.9744 240.607 40.9466 237.38 41.1403 234.445L51.4671 78.0406C51.4719 77.9677 51.4751 77.8945 51.483 77.8228C51.5143 77.5379 51.6565 76.7481 52.2899 76.1447M58.4181 68.9996C54.4996 70.5554 52.2899 76.1447 52.2899 76.1447" stroke="#545454" stroke-width="0.510966"></path><path d="M60.4741 93.6117C60.6702 90.6288 63.0853 89.0545 65.8825 90.0862L160.404 124.951C163.301 126.02 165.463 129.456 165.155 132.504L156.573 217.694C156.279 220.62 153.814 222.079 151.039 220.971L59.6098 184.442C56.8456 183.338 54.7902 180.092 54.9844 177.138L60.4741 93.6117Z" fill="#07080A" stroke="#545454" stroke-width="0.510966"></path><path d="M141.05 254.493L152.893 259.102L153.184 255.875L141.461 251.9L131.155 250.343L86.1415 232.016L86.1415 233.633L138.522 254.873L141.05 254.493Z" fill="black"></path><path d="M153.184 255.875L153.617 251.062C153.831 248.684 152.14 246.028 149.889 245.207L142.21 242.406L141.461 251.9L153.184 255.875Z" fill="#07080A"></path><path d="M141.05 254.493L140.704 260.14L152.391 264.692L152.893 259.102L141.05 254.493Z" fill="#07080A"></path><path d="M130.019 267.554L147.367 274.658C149.562 275.557 151.518 274.396 151.727 272.069L152.391 264.692L140.704 260.14L130.019 267.554Z" fill="#07080A"></path><path d="M130.79 255.875L130.019 267.554L140.704 260.14L141.05 254.493L138.522 254.873L130.79 255.875Z" fill="#07080A"></path><path d="M135.856 240.088C133.679 239.294 131.803 240.523 131.65 242.844L131.155 250.343L141.461 251.9L142.21 242.406L135.856 240.088Z" fill="#07080A"></path><path d="M81.524 235.534L130.79 255.875L138.522 254.873L86.1415 233.633L81.524 235.534Z" fill="#07080A"></path><path d="M82.6728 230.603C82.1773 230.402 81.7419 230.68 81.718 231.214L81.524 235.534L86.1415 233.633L86.1415 232.016L82.6728 230.603Z" fill="#07080A"></path><path d="M130.019 267.554L147.367 274.658C149.562 275.557 151.518 274.396 151.727 272.069L152.391 264.692M130.019 267.554L130.79 255.875M130.019 267.554L140.704 260.14M131.155 250.343L131.65 242.844C131.803 240.523 133.679 239.294 135.856 240.088L142.21 242.406M131.155 250.343L141.461 251.9M131.155 250.343L86.1415 232.016M81.524 235.534L81.718 231.214C81.7419 230.68 82.1773 230.402 82.6728 230.603L86.1415 232.016M81.524 235.534L130.79 255.875M81.524 235.534L86.1415 233.633M130.79 255.875L138.522 254.873M141.05 254.493L140.704 260.14M141.05 254.493L152.893 259.102M141.05 254.493L138.522 254.873M140.704 260.14L152.391 264.692M152.391 264.692L152.893 259.102M152.893 259.102L153.184 255.875M141.461 251.9L153.184 255.875M141.461 251.9L142.21 242.406M153.184 255.875L153.617 251.062C153.831 248.684 152.14 246.028 149.889 245.207L142.21 242.406M86.1415 233.633L86.1415 232.016M86.1415 233.633L138.522 254.873" stroke="#545454" stroke-width="0.510966"></path><g class="ApiFig2_screen__QvgLu"><path d="M74.3968 93.2016L160.402 124.946C163.301 126.016 165.462 129.455 165.152 132.504L157.449 208.231C110.033 199.465 81.4743 178.906 72.4412 171.513C70.4198 169.859 69.1055 167.38 68.8615 164.886C67.8629 154.677 66.1723 125.786 74.3968 93.2016Z" fill="#02193B" stroke="#143CA3" stroke-width="0.510966"></path><path fill-rule="evenodd" clip-rule="evenodd" d="M105.447 151.763V153.798L100.818 147.376L101.788 146.685L105.447 151.763ZM107.378 154.442L105.447 153.798L110.076 160.22L111.042 159.525L107.378 154.442ZM118.356 154.244L119.321 153.548L110.072 140.715L109.107 141.412L112.762 146.487L110.553 145.75L108.001 142.213L107.036 142.908L108.624 145.112L107.519 144.744V152.31L114.696 154.702V153.532L116.285 155.736L117.251 155.041L114.696 151.498V149.169L118.356 154.244ZM105.93 143.701L104.965 144.397L106.001 145.833L106.965 145.137L105.93 143.701ZM114.144 155.097L113.183 155.793L114.218 157.23L115.183 156.533L114.144 155.097ZM103.86 145.194L102.894 145.89L105.447 149.432V147.396L103.86 145.194ZM111.52 155.823L109.589 155.179L112.142 158.721L113.108 158.025L111.52 155.823Z" fill="#63A1FF"></path></g><g class="ApiFig2_appleLogo__y7S2e"><path fill-rule="evenodd" clip-rule="evenodd" d="M48.4126 229.846C48.4154 229.843 48.4184 229.84 48.4214 229.837C48.9022 229.36 49.5635 229.233 50.1314 229.46C50.7097 229.691 51.0205 230.176 51.4985 230.367C51.9623 230.552 52.2976 230.326 52.9662 230.593C53.4713 230.796 53.9611 231.304 54.2635 231.965C54.1485 231.984 54.0424 232.016 53.9454 232.059L48.4126 229.846Z" fill="#3782F3"></path><path fill-rule="evenodd" clip-rule="evenodd" d="M52.5465 229.822C52.841 229.586 53.0987 229.19 53.1066 228.682C52.7053 228.552 52.1993 228.637 51.8735 228.88C51.5779 229.1 51.3012 229.493 51.3087 229.984C51.7396 230.172 52.2307 230.075 52.5465 229.822Z" fill="#3782F3"></path><path fill-rule="evenodd" clip-rule="evenodd" d="M48.3966 229.828C48.1888 230.038 48.0132 230.388 47.9289 230.723L53.2777 232.862C53.3946 232.506 53.6434 232.22 53.991 232.066L48.3966 229.828Z" fill="#2065CD"></path><path fill-rule="evenodd" clip-rule="evenodd" d="M47.8187 231.752C47.8218 231.377 47.8666 231.032 47.948 230.732L53.2551 232.854C53.1503 233.173 53.1389 233.545 53.221 233.913L47.8187 231.752Z" fill="#114FAB"></path><path fill-rule="evenodd" clip-rule="evenodd" d="M47.9192 232.864C47.8467 232.475 47.8138 232.1 47.8169 231.751L53.2192 233.912C53.3238 234.382 53.58 234.848 53.9885 235.198C53.9707 235.224 53.9537 235.248 53.9372 235.272L47.9192 232.864Z" fill="#02337B"></path><path fill-rule="evenodd" clip-rule="evenodd" d="M53.9394 235.272C53.7351 235.564 53.62 235.711 53.3605 235.965C53.3256 235.999 53.2896 236.034 53.2524 236.069L48.2657 234.075C48.2537 234.043 48.2418 234.011 48.2301 233.98C48.0909 233.602 47.9889 233.227 47.9214 232.864L53.9394 235.272Z" fill="#052A61"></path><path fill-rule="evenodd" clip-rule="evenodd" d="M53.2532 236.073C52.8739 236.428 52.3826 236.79 51.8849 236.596C51.3993 236.407 51.3281 236.015 50.6696 235.756C50.0111 235.497 49.8216 235.777 49.3375 235.578C48.8199 235.366 48.4976 234.689 48.2665 234.079L53.2532 236.073Z" fill="#02193B"></path></g></svg>