<svg width="450" height="320" viewBox="0 0 450 320" fill="none" xmlns="http://www.w3.org/2000/svg" id="svg1557546998_41712">
<path fill-rule="evenodd" clip-rule="evenodd" d="M396.75 2.13351V4.17815H386.527H376.304V6.2228V8.26744H370.17H364.036V10.3121V12.3567H355.857H347.679V14.4014V16.446H341.545H335.411V18.4907V20.5353H329.277H323.143V22.5799V24.6246H319.054H314.964V26.6692V28.7139H308.83H302.697V30.7585V32.8032H298.607H294.518V34.8478V36.8924H288.384H282.25V38.9371V40.9817H276.116H269.982V38.9371V36.8924H267.938H265.893V38.9371V40.9817H267.938H269.982V43.0264V45.071H265.893H261.804V43.0264V40.9817H259.759H257.714V43.0264V45.071H259.759H261.804V47.1157V49.1603H257.714H253.625V51.2049V53.2496H249.536H245.447V51.2049V49.1603H247.491H249.536V47.1157V45.071H243.402H237.268V43.0264V40.9817H239.313H241.357V38.9371V36.8924H237.268H233.179V40.9817V45.071H231.134H229.089V47.1157V49.1603H227.045H225V45.071V40.9817H222.955H220.911V38.9371V36.8924H222.955H225V34.8478V32.8032H222.955H220.911V34.8478V36.8924H216.822H212.732V34.8478V32.8032H210.688H208.643V34.8478V36.8924H210.688H212.732V38.9371V40.9817H214.777H216.822V43.0264V45.071H212.732H208.643V43.0264V40.9817H206.598H204.554V43.0264V45.071H206.598H208.643V47.1157V49.1603H206.598H204.554V51.2049V53.2496H202.509H200.464V57.3389V61.4282H198.42H196.375V55.2942V49.1603H198.42H200.464V47.1157V45.071H196.375H192.286V43.0264V40.9817H188.197H184.107V43.0264V45.071H182.063H180.018V43.0264V40.9817H175.929H171.839V43.0264V45.071H169.795H167.75V47.1157V49.1603H169.795H171.839V47.1157V45.071H175.929H180.018V47.1157V49.1603H177.973H175.929V51.2049V53.2496H173.884H171.839V55.2942V57.3389H173.884H175.929V55.2942V53.2496H177.973H180.018V51.2049V49.1603H184.107H188.197V47.1157V45.071H190.241H192.286V49.1603V53.2496H190.241H188.197V55.2942V57.3389H186.152H184.107V61.4282V65.5174H182.063H180.018V63.4728V61.4282H177.973H175.929V63.4728V65.5174H173.884H171.839V67.5621V69.6067H169.795H167.75V71.6514V73.696H169.795H171.839V75.7407V77.7853H167.75H163.661V79.8299V81.8746H161.616H159.572V75.7407V69.6067H161.616H163.661V67.5621V65.5174H165.705H167.75V63.4728V61.4282H165.705H163.661V63.4728V65.5174H159.572H155.482V67.5621V69.6067H153.438H151.393V67.5621V65.5174H149.348H147.304V69.6067V73.696H151.393H155.482V75.7407V77.7853H153.438H151.393V79.8299V81.8746H153.438H155.482V83.9192V85.9639H153.438H151.393V88.0085V90.0532H147.304H143.214V88.0085V85.9639H145.259H147.304V83.9192V81.8746H143.214H139.125V83.9192V85.9639H137.08H135.036V90.0532V94.1424H132.991H130.947V96.1871V98.2317H126.857H122.768V100.276V102.321H120.723H118.679V104.366V106.41H120.723H122.768V104.366V102.321H124.813H126.857V106.41V110.5H122.768H118.679V112.544V114.589H120.723H122.768V116.634V118.678H120.723H118.679V120.723V122.767H120.723H122.768V120.723V118.678H124.813H126.857V120.723V122.767H128.902H130.947V120.723V118.678H128.902H126.857V114.589V110.5H128.902H130.947V112.544V114.589H132.991H135.036V116.634V118.678H137.08H139.125V120.723V122.767H137.08H135.036V124.812V126.857H132.991H130.947V128.901V130.946H128.902H126.857V132.991V135.035H124.813H122.768V137.08V139.125H118.679H114.589V141.169V143.214H112.545H110.5V145.259V147.303H108.455H106.411V149.348V151.392H104.366H102.321V153.437V155.482H100.277H98.2322V157.526V159.571H96.1876H94.1429V163.66V167.75H92.0983H90.0536V169.794V171.839H88.009H85.9644V173.884V175.928H83.9197H81.8751V177.973V180.017H79.8304H77.7858V182.062V184.107H75.7411H73.6965V186.151V188.196H71.6519H69.6072V190.241V192.285H67.5626H65.5179V194.33V196.375H63.4733H61.4286V198.419V200.464H59.384H57.3394V202.509V204.553H55.2947H53.2501V206.598V208.642H51.2054H49.1608V210.687V212.732H47.1161H45.0715V216.821V220.91H43.0269H40.9822V222.955V225H38.9376H36.8929V227.044V229.089H34.8483H32.8036V231.134V233.178H30.759H28.7144V237.267V241.357H26.6697H24.6251V243.401V245.446H22.5804H20.5358V247.491V249.535H18.4911H16.4465V253.625V257.714H14.4019H12.3572V259.759V261.803H10.3126H8.26793V265.892V269.982H6.22328H4.17864V274.071V278.16H2.134H0.0893555V292.473V306.785H2.134H4.17864V308.83V310.875H10.3126H16.4465V314.964V319.053H20.5358H24.6251V317.009V314.964H26.6697H28.7144V317.009V319.053H40.9822H53.2501V317.009V314.964H63.4733H73.6965V312.919V310.875H79.8304H85.9644V308.83V306.785H92.0983H98.2322V304.741V302.696H100.277H102.321V300.651V298.607H104.366H106.411V300.651V302.696H108.455H110.5V300.651V298.607H108.455H106.411V296.562V294.517H100.277H94.1429V292.473V290.428H96.1876H98.2322V288.384V286.339H100.277H102.321V288.384V290.428H106.411H110.5V292.473V294.517H112.545H114.589V296.562V298.607H116.634H118.679V296.562V294.517H116.634H114.589V292.473V290.428H112.545H110.5V288.384V286.339H106.411H102.321V284.294V282.25H100.277H98.2322V278.16V274.071H94.1429H90.0536V276.116V278.16H88.009H85.9644V276.116V274.071H83.9197H81.8751V272.026V269.982H77.7858H73.6965V267.937V265.892H71.6519H69.6072V259.759V253.625H71.6519H73.6965V249.535V245.446H75.7411H77.7858V241.357V237.267H79.8304H81.8751V233.178V229.089H83.9197H85.9644V227.044V225H88.009H90.0536V222.955V220.91H92.0983H94.1429V216.821V212.732H96.1876H98.2322V210.687V208.642H100.277H102.321V206.598V204.553H104.366H106.411V202.509V200.464H108.455H110.5V198.419V196.375H112.545H114.589V194.33V192.285H116.634H118.679V190.241V188.196H120.723H122.768V186.151V184.107H126.857H130.947V182.062V180.017H132.991H135.036V177.973V175.928H137.08H139.125V173.884V171.839H141.17H143.214V169.794V167.75H145.259H147.304V165.705V163.66H151.393H155.482V161.616V159.571H157.527H159.572V157.526V155.482H161.616H163.661V153.437V151.392H167.75H171.839V149.348V147.303H173.884H175.929V145.259V143.214H180.018H184.107V141.169V139.125H186.152H188.197V137.08V135.035H192.286H196.375V132.991V130.946H198.42H200.464V128.901V126.857H204.554H208.643V130.946V135.035H204.554H200.464V137.08V139.125H196.375H192.286V141.169V143.214H190.241H188.197V145.259V147.303H186.152H184.107V149.348V151.392H180.018H175.929V157.526V163.66H173.884H171.839V161.616V159.571H169.795H167.75V161.616V163.66H165.705H163.661V165.705V167.75H161.616H159.572V169.794V171.839H157.527H155.482V173.884V175.928H153.438H151.393V180.017V184.107H149.348H147.304V186.151V188.196H143.214H139.125V190.241V192.285H137.08H135.036V194.33V196.375H132.991H130.947V200.464V204.553H128.902H126.857V210.687V216.821H124.813H122.768V218.866V220.91H124.813H126.857V225V229.089H128.902H130.947V227.044V225H135.036H139.125V229.089V233.178H141.17H143.214V229.089V225H141.17H139.125V222.955V220.91H141.17H143.214V218.866V216.821H145.259H147.304V214.776V212.732H149.348H151.393V210.687V208.642H155.482H159.572V210.687V212.732H161.616H163.661V214.776V216.821H165.705H167.75V214.776V212.732H169.795H171.839V210.687V208.642H175.929H180.018V210.687V212.732H182.063H184.107V214.776V216.821H186.152H188.197V220.91V225H186.152H184.107V222.955V220.91H182.063H180.018V222.955V225H182.063H184.107V229.089V233.178H182.063H180.018V231.134V229.089H177.973H175.929V227.044V225H171.839H167.75V227.044V229.089H171.839H175.929V231.134V233.178H177.973H180.018V235.223V237.267H177.973H175.929V239.312V241.357H171.839H167.75V243.401V245.446H171.839H175.929V247.491V249.535H177.973H180.018V251.58V253.625H177.973H175.929V255.669V257.714H177.973H180.018V259.759V261.803H175.929H171.839V263.848V265.892H175.929H180.018V263.848V261.803H182.063H184.107V263.848V265.892H186.152H188.197V267.937V269.982H192.286H196.375V267.937V265.892H200.464H204.554V261.803V257.714H206.598H208.643V263.848V269.982H210.688H212.732V272.026V274.071H214.777H216.822V272.026V269.982H218.866H220.911V267.937V265.892H218.866H216.822V263.848V261.803H214.777H212.732V259.759V257.714H214.777H216.822V251.58V245.446H218.866H220.911V243.401V241.357H218.866H216.822V239.312V237.267H222.955H229.089V239.312V241.357H231.134H233.179V245.446V249.535H231.134H229.089V247.491V245.446H227.045H225V247.491V249.535H222.955H220.911V251.58V253.625H222.955H225V251.58V249.535H227.045H229.089V251.58V253.625H231.134H233.179V255.669V257.714H235.223H237.268V255.669V253.625H235.223H233.179V251.58V249.535H237.268H241.357V247.491V245.446H245.447H249.536V247.491V249.535H247.491H245.447V251.58V253.625H243.402H241.357V255.669V257.714H245.447H249.536V259.759V261.803H245.447H241.357V263.848V265.892H239.313H237.268V263.848V261.803H233.179H229.089V263.848V265.892H231.134H233.179V269.982V274.071H235.223H237.268V272.026V269.982H239.313H241.357V267.937V265.892H247.491H253.625V267.937V269.982H255.67H257.714V272.026V274.071H255.67H253.625V276.116V278.16H255.67H257.714V276.116V274.071H259.759H261.804V276.116V278.16H263.848H265.893V276.116V274.071H263.848H261.804V272.026V269.982H259.759H257.714V267.937V265.892H255.67H253.625V263.848V261.803H257.714H261.804V259.759V257.714H263.848H265.893V259.759V261.803H267.938H269.982V263.848V265.892H272.027H274.072V267.937V269.982H276.116H278.161V267.937V265.892H276.116H274.072V261.803V257.714H276.116H278.161V255.669V253.625H276.116H274.072V251.58V249.535H276.116H278.161V245.446V241.357H280.205H282.25V243.401V245.446H286.339H290.429V243.401V241.357H286.339H282.25V239.312V237.267H284.295H286.339V235.223V233.178H288.384H290.429V235.223V237.267H292.473H294.518V241.357V245.446H296.563H298.607V239.312V233.178H302.697H306.786V235.223V237.267H308.83H310.875V235.223V233.178H308.83H306.786V231.134V229.089H310.875H314.964V225V220.91H312.92H310.875V216.821V212.732H308.83H306.786V208.642V204.553H308.83H310.875V206.598V208.642H312.92H314.964V212.732V216.821H317.009H319.054V212.732V208.642H321.098H323.143V210.687V212.732H325.188H327.232V214.776V216.821H325.188H323.143V218.866V220.91H325.188H327.232V218.866V216.821H329.277H331.322V214.776V212.732H333.366H335.411V210.687V208.642H337.455H339.5V206.598V204.553H341.545H343.589V202.509V200.464H341.545H339.5V202.509V204.553H337.455H335.411V206.598V208.642H329.277H323.143V206.598V204.553H327.232H331.322V202.509V200.464H327.232H323.143V198.419V196.375H327.232H331.322V194.33V192.285H333.366H335.411V194.33V196.375H337.455H339.5V192.285V188.196H341.545H343.589V184.107V180.017H347.679H351.768V177.973V175.928H353.813H355.857V173.884V171.839H353.813H351.768V169.794V167.75H349.723H347.679V165.705V163.66H345.634H343.589V159.571V155.482H345.634H347.679V157.526V159.571H349.723H351.768V157.526V155.482H349.723H347.679V153.437V151.392H345.634H343.589V147.303V143.214H341.545H339.5V139.125V135.035H337.455H335.411V132.991V130.946H339.5H343.589V132.991V135.035H345.634H347.679V132.991V130.946H345.634H343.589V128.901V126.857H341.545H339.5V124.812V122.767H341.545H343.589V118.678V114.589H341.545H339.5V112.544V110.5H335.411H331.322V108.455V106.41H333.366H335.411V104.366V102.321H333.366H331.322V98.2317V94.1424H329.277H327.232V92.0978V90.0532H323.143H319.054V85.9639V81.8746H321.098H323.143V83.9192V85.9639H325.188H327.232V83.9192V81.8746H325.188H323.143V79.8299V77.7853H321.098H319.054V79.8299V81.8746H317.009H314.964V79.8299V77.7853H312.92H310.875V79.8299V81.8746H302.697H294.518V83.9192V85.9639H290.429H286.339V88.0085V90.0532H280.205H274.072V88.0085V85.9639H276.116H278.161V83.9192V81.8746H284.295H290.429V79.8299V77.7853H294.518H298.607V75.7407V73.696H304.741H310.875V71.6514V69.6067H314.964H319.054V67.5621V65.5174H329.277H339.5V63.4728V61.4282H355.857H372.214V63.4728V65.5174H376.304H380.393V67.5621V69.6067H382.438H384.482V73.696V77.7853H382.438H380.393V79.8299V81.8746H382.438H384.482V83.9192V85.9639H382.438H380.393V88.0085V90.0532H378.348H376.304V96.1871V102.321H374.259H372.214V104.366V106.41H370.17H368.125V110.5V114.589H370.17H372.214V118.678V122.767H374.259H376.304V124.812V126.857H374.259H372.214V128.901V130.946H370.17H368.125V132.991V135.035H366.08H364.036V139.125V143.214H366.08H368.125V139.125V135.035H370.17H372.214V132.991V130.946H374.259H376.304V128.901V126.857H378.348H380.393V124.812V122.767H382.438H384.482V120.723V118.678H386.527H388.572V116.634V114.589H386.527H384.482V112.544V110.5H382.438H380.393V108.455V106.41H378.348H376.304V104.366V102.321H378.348H380.393V100.276V98.2317H382.438H384.482V102.321V106.41H386.527H388.572V108.455V110.5H390.616H392.661V112.544V114.589H394.705H396.75V112.544V110.5H398.795H400.839V108.455V106.41H402.884H404.929V102.321V98.2317H406.973H409.018V96.1871V94.1424H411.063H413.107V92.0978V90.0532H415.152H417.197V88.0085V85.9639H419.241H421.286V83.9192V81.8746H419.241H417.197V79.8299V77.7853H421.286H425.375V75.7407V73.696H427.42H429.464V71.6514V69.6067H431.509H433.554V65.5174V61.4282H435.598H437.643V59.3835V57.3389H439.688H441.732V53.2496V49.1603H443.777H445.822V45.071V40.9817H447.866H449.911V26.6692V12.3567H447.866H445.822V10.3121V8.26744H443.777H441.732V6.2228V4.17815H437.643H433.554V2.13351V0.0888672H415.152H396.75V2.13351ZM396.75 14.4014V16.446H390.616H384.482V18.4907V20.5353H378.348H372.214V22.5799V24.6246H364.036H355.857V26.6692V28.7139H347.679H339.5V30.7585V32.8032H335.411H331.322V34.8478V36.8924H325.188H319.054V38.9371V40.9817H314.964H310.875V43.0264V45.071H306.786H302.697V47.1157V49.1603H298.607H294.518V51.2049V53.2496H288.384H282.25V55.2942V57.3389H278.161H274.072V59.3835V61.4282H269.982H265.893V63.4728V65.5174H261.804H257.714V67.5621V69.6067H253.625H249.536V71.6514V73.696H245.447H241.357V75.7407V77.7853H237.268H233.179V79.8299V81.8746H231.134H229.089V83.9192V85.9639H225H220.911V88.0085V90.0532H216.822H212.732V92.0978V94.1424H208.643H204.554V96.1871V98.2317H202.509H200.464V100.276V102.321H196.375H192.286V104.366V106.41H190.241H188.197V108.455V110.5H186.152H184.107V112.544V114.589H180.018H175.929V116.634V118.678H173.884H171.839V120.723V122.767H167.75H163.661V124.812V126.857H161.616H159.572V128.901V130.946H157.527H155.482V132.991V135.035H153.438H151.393V137.08V139.125H147.304H143.214V141.169V143.214H141.17H139.125V145.259V147.303H137.08H135.036V149.348V151.392H132.991H130.947V153.437V155.482H126.857H122.768V157.526V159.571H120.723H118.679V161.616V163.66H116.634H114.589V165.705V167.75H112.545H110.5V169.794V171.839H108.455H106.411V173.884V175.928H104.366H102.321V177.973V180.017H100.277H98.2322V182.062V184.107H94.1429H90.0536V188.196V192.285H85.9644H81.8751V194.33V196.375H79.8304H77.7858V198.419V200.464H75.7411H73.6965V202.509V204.553H71.6519H69.6072V206.598V208.642H67.5626H65.5179V210.687V212.732H63.4733H61.4286V214.776V216.821H59.384H57.3394V218.866V220.91H55.2947H53.2501V222.955V225H51.2054H49.1608V229.089V233.178H45.0715H40.9822V237.267V241.357H38.9376H36.8929V243.401V245.446H34.8483H32.8036V249.535V253.625H30.759H28.7144V257.714V261.803H26.6697H24.6251V265.892V269.982H22.5804H20.5358V280.205V290.428H22.5804H24.6251V294.517V298.607H28.7144H32.8036V300.651V302.696H36.8929H40.9822V304.741V306.785H53.2501H65.5179V304.741V302.696H73.6965H81.8751V300.651V298.607H83.9197H85.9644V300.651V302.696H88.009H90.0536V300.651V298.607H92.0983H94.1429V300.651V302.696H96.1876H98.2322V300.651V298.607H96.1876H94.1429V296.562V294.517H81.8751H69.6072V296.562V298.607H63.4733H57.3394V296.562V294.517H55.2947H53.2501V292.473V290.428H55.2947H57.3394V288.384V286.339H55.2947H53.2501V288.384V290.428H51.2054H49.1608V292.473V294.517H45.0715H40.9822V292.473V290.428H43.0269H45.0715V288.384V286.339H43.0269H40.9822V288.384V290.428H38.9376H36.8929V284.294V278.16H34.8483H32.8036V272.026V265.892H34.8483H36.8929V261.803V257.714H38.9376H40.9822V253.625V249.535H43.0269H45.0715V245.446V241.357H47.1161H49.1608V239.312V237.267H51.2054H53.2501V235.223V233.178H55.2947H57.3394V231.134V229.089H59.384H61.4286V227.044V225H63.4733H65.5179V220.91V216.821H67.5626H69.6072V214.776V212.732H71.6519H73.6965V210.687V208.642H75.7411H77.7858V206.598V204.553H79.8304H81.8751V202.509V200.464H83.9197H85.9644V198.419V196.375H88.009H90.0536V194.33V192.285H92.0983H94.1429V190.241V188.196H96.1876H98.2322V186.151V184.107H100.277H102.321V182.062V180.017H106.411H110.5V182.062V184.107H108.455H106.411V186.151V188.196H104.366H102.321V190.241V192.285H100.277H98.2322V194.33V196.375H96.1876H94.1429V198.419V200.464H92.0983H90.0536V202.509V204.553H88.009H85.9644V206.598V208.642H83.9197H81.8751V210.687V212.732H79.8304H77.7858V216.821V220.91H75.7411H73.6965V222.955V225H71.6519H69.6072V227.044V229.089H67.5626H65.5179V233.178V237.267H63.4733H61.4286V239.312V241.357H59.384H57.3394V245.446V249.535H55.2947H53.2501V255.669V261.803H49.1608H45.0715V263.848V265.892H47.1161H49.1608V272.026V278.16H51.2054H53.2501V280.205V282.25H57.3394H61.4286V284.294V286.339H73.6965H85.9644V288.384V290.428H88.009H90.0536V288.384V286.339H94.1429H98.2322V284.294V282.25H96.1876H94.1429V280.205V278.16H92.0983H90.0536V280.205V282.25H85.9644H81.8751V280.205V278.16H79.8304H77.7858V280.205V282.25H73.6965H69.6072V280.205V278.16H61.4286H53.2501V274.071V269.982H55.2947H57.3394V272.026V274.071H59.384H61.4286V269.982V265.892H63.4733H65.5179V263.848V261.803H63.4733H61.4286V263.848V265.892H57.3394H53.2501V263.848V261.803H55.2947H57.3394V257.714V253.625H59.384H61.4286V249.535V245.446H63.4733H65.5179V241.357V237.267H67.5626H69.6072V235.223V233.178H71.6519H73.6965V231.134V229.089H75.7411H77.7858V227.044V225H79.8304H81.8751V220.91V216.821H83.9197H85.9644V214.776V212.732H88.009H90.0536V210.687V208.642H92.0983H94.1429V206.598V204.553H96.1876H98.2322V202.509V200.464H100.277H102.321V198.419V196.375H104.366H106.411V194.33V192.285H108.455H110.5V190.241V188.196H112.545H114.589V186.151V184.107H116.634H118.679V182.062V180.017H120.723H122.768V177.973V175.928H124.813H126.857V173.884V171.839H128.902H130.947V169.794V167.75H135.036H139.125V165.705V163.66H141.17H143.214V161.616V159.571H145.259H147.304V157.526V155.482H151.393H155.482V153.437V151.392H157.527H159.572V149.348V147.303H161.616H163.661V145.259V143.214H167.75H171.839V141.169V139.125H173.884H175.929V137.08V135.035H180.018H184.107V132.991V130.946H186.152H188.197V128.901V126.857H190.241H192.286V124.812V122.767H196.375H200.464V120.723V118.678H204.554H208.643V116.634V114.589H210.688H212.732V112.544V110.5H216.822H220.911V108.455V106.41H225H229.089V104.366V102.321H231.134H233.179V100.276V98.2317H237.268H241.357V96.1871V94.1424H245.447H249.536V92.0978V90.0532H251.58H253.625V88.0085V85.9639H257.714H261.804V83.9192V81.8746H265.893H269.982V79.8299V77.7853H274.072H278.161V75.7407V73.696H282.25H286.339V71.6514V69.6067H290.429H294.518V67.5621V65.5174H300.652H306.786V63.4728V61.4282H310.875H314.964V59.3835V57.3389H321.098H327.232V55.2942V53.2496H337.455H347.679V51.2049V49.1603H366.08H384.482V51.2049V53.2496H386.527H388.572V55.2942V57.3389H390.616H392.661V59.3835V61.4282H390.616H388.572V63.4728V65.5174H390.616H392.661V71.6514V77.7853H390.616H388.572V83.9192V90.0532H384.482H380.393V92.0978V94.1424H382.438H384.482V96.1871V98.2317H386.527H388.572V100.276V102.321H390.616H392.661V106.41V110.5H394.705H396.75V106.41V102.321H398.795H400.839V100.276V98.2317H398.795H396.75V96.1871V94.1424H398.795H400.839V92.0978V90.0532H402.884H404.929V92.0978V94.1424H406.973H409.018V92.0978V90.0532H406.973H404.929V88.0085V85.9639H406.973H409.018V83.9192V81.8746H411.063H413.107V79.8299V77.7853H415.152H417.197V73.696V69.6067H421.286H425.375V67.5621V65.5174H423.33H421.286V61.4282V57.3389H423.33H425.375V51.2049V45.071H427.42H429.464V38.9371V32.8032H431.509H433.554V34.8478V36.8924H435.598H437.643V34.8478V32.8032H435.598H433.554V30.7585V28.7139H431.509H429.464V30.7585V32.8032H427.42H425.375V28.7139V24.6246H423.33H421.286V22.5799V20.5353H417.197H413.107V18.4907V16.446H415.152H417.197V14.4014V12.3567H415.152H413.107V14.4014V16.446H406.973H400.839V14.4014V12.3567H398.795H396.75V14.4014ZM429.464 14.4014V16.446H431.509H433.554V14.4014V12.3567H431.509H429.464V14.4014ZM441.732 22.5799V24.6246H443.777H445.822V22.5799V20.5353H443.777H441.732V22.5799ZM200.464 30.7585V32.8032H202.509H204.554V30.7585V28.7139H202.509H200.464V30.7585ZM372.214 30.7585V32.8032H364.036H355.857V34.8478V36.8924H347.679H339.5V38.9371V40.9817H333.366H327.232V43.0264V45.071H321.098H314.964V47.1157V49.1603H310.875H306.786V51.2049V53.2496H300.652H294.518V55.2942V57.3389H288.384H282.25V59.3835V61.4282H280.205H278.161V63.4728V65.5174H272.027H265.893V67.5621V69.6067H261.804H257.714V71.6514V73.696H253.625H249.536V75.7407V77.7853H245.447H241.357V79.8299V81.8746H237.268H233.179V83.9192V85.9639H231.134H229.089V88.0085V90.0532H225H220.911V92.0978V94.1424H216.822H212.732V96.1871V98.2317H210.688H208.643V100.276V102.321H204.554H200.464V104.366V106.41H198.42H196.375V108.455V110.5H192.286H188.197V112.544V114.589H186.152H184.107V116.634V118.678H180.018H175.929V120.723V122.767H173.884H171.839V124.812V126.857H169.795H167.75V128.901V130.946H163.661H159.572V132.991V135.035H157.527H155.482V137.08V139.125H153.438H151.393V141.169V143.214H149.348H147.304V145.259V147.303H145.259H143.214V149.348V151.392H139.125H135.036V153.437V155.482H132.991H130.947V157.526V159.571H128.902H126.857V161.616V163.66H124.813H122.768V165.705V167.75H118.679H114.589V171.839V175.928H112.545H110.5V177.973V180.017H112.545H114.589V177.973V175.928H116.634H118.679V173.884V171.839H122.768H126.857V169.794V167.75H128.902H130.947V165.705V163.66H132.991H135.036V161.616V159.571H137.08H139.125V157.526V155.482H143.214H147.304V153.437V151.392H149.348H151.393V149.348V147.303H153.438H155.482V145.259V143.214H159.572H163.661V141.169V139.125H165.705H167.75V137.08V135.035H169.795H171.839V132.991V130.946H175.929H180.018V128.901V126.857H184.107H188.197V124.812V122.767H190.241H192.286V120.723V118.678H194.33H196.375V116.634V114.589H200.464H204.554V112.544V110.5H206.598H208.643V108.455V106.41H212.732H216.822V104.366V102.321H220.911H225V100.276V98.2317H229.089H233.179V96.1871V94.1424H235.223H237.268V92.0978V90.0532H241.357H245.447V88.0085V85.9639H249.536H253.625V83.9192V81.8746H257.714H261.804V79.8299V77.7853H265.893H269.982V75.7407V73.696H274.072H278.161V71.6514V69.6067H280.205H282.25V67.5621V65.5174H288.384H294.518V63.4728V61.4282H298.607H302.697V59.3835V57.3389H308.83H314.964V55.2942V53.2496H321.098H327.232V51.2049V49.1603H335.411H343.589V47.1157V45.071H366.08H388.572V49.1603V53.2496H390.616H392.661V51.2049V49.1603H394.705H396.75V51.2049V53.2496H400.839H404.929V55.2942V57.3389H400.839H396.75V59.3835V61.4282H398.795H400.839V63.4728V65.5174H398.795H396.75V71.6514V77.7853H398.795H400.839V81.8746V85.9639H398.795H396.75V83.9192V81.8746H394.705H392.661V85.9639V90.0532H390.616H388.572V94.1424V98.2317H390.616H392.661V100.276V102.321H394.705H396.75V100.276V98.2317H394.705H392.661V96.1871V94.1424H394.705H396.75V92.0978V90.0532H398.795H400.839V88.0085V85.9639H402.884H404.929V81.8746V77.7853H406.973H409.018V73.696V69.6067H411.063H413.107V63.4728V57.3389H415.152H417.197V53.2496V49.1603H415.152H413.107V47.1157V45.071H415.152H417.197V43.0264V40.9817H415.152H413.107V36.8924V32.8032H409.018H404.929V30.7585V28.7139H402.884H400.839V30.7585V32.8032H398.795H396.75V30.7585V28.7139H384.482H372.214V30.7585ZM245.447 36.8924V40.9817H247.491H249.536V36.8924V32.8032H247.491H245.447V36.8924ZM380.393 34.8478V36.8924H382.438H384.482V34.8478V32.8032H382.438H380.393V34.8478ZM396.75 38.9371V40.9817H398.795H400.839V38.9371V36.8924H398.795H396.75V38.9371ZM433.554 43.0264V45.071H435.598H437.643V43.0264V40.9817H435.598H433.554V43.0264ZM404.929 49.1603V53.2496H406.973H409.018V49.1603V45.071H406.973H404.929V49.1603ZM208.643 51.2049V53.2496H210.688H212.732V55.2942V57.3389H210.688H208.643V59.3835V61.4282H210.688H212.732V63.4728V65.5174H214.777H216.822V63.4728V61.4282H214.777H212.732V59.3835V57.3389H214.777H216.822V53.2496V49.1603H212.732H208.643V51.2049ZM151.393 55.2942V57.3389H153.438H155.482V55.2942V53.2496H153.438H151.393V55.2942ZM159.572 55.2942V57.3389H163.661H167.75V55.2942V53.2496H163.661H159.572V55.2942ZM225 55.2942V57.3389H227.045H229.089V59.3835V61.4282H233.179H237.268V59.3835V57.3389H241.357H245.447V55.2942V53.2496H241.357H237.268V55.2942V57.3389H233.179H229.089V55.2942V53.2496H227.045H225V55.2942ZM376.304 59.3835V61.4282H378.348H380.393V59.3835V57.3389H378.348H376.304V59.3835ZM429.464 59.3835V61.4282H431.509H433.554V59.3835V57.3389H431.509H429.464V59.3835ZM139.125 63.4728V65.5174H137.08H135.036V67.5621V69.6067H132.991H130.947V71.6514V73.696H135.036H139.125V69.6067V65.5174H141.17H143.214V63.4728V61.4282H141.17H139.125V63.4728ZM220.911 63.4728V65.5174H222.955H225V63.4728V61.4282H222.955H220.911V63.4728ZM404.929 63.4728V65.5174H406.973H409.018V63.4728V61.4282H406.973H404.929V63.4728ZM171.839 71.6514V73.696H173.884H175.929V71.6514V69.6067H173.884H171.839V71.6514ZM204.554 73.696V77.7853H206.598H208.643V75.7407V73.696H212.732H216.822V71.6514V69.6067H210.688H204.554V73.696ZM400.839 71.6514V73.696H402.884H404.929V71.6514V69.6067H402.884H400.839V71.6514ZM196.375 79.8299V81.8746H198.42H200.464V79.8299V77.7853H198.42H196.375V79.8299ZM188.197 83.9192V85.9639H184.107H180.018V88.0085V90.0532H175.929H171.839V94.1424V98.2317H165.705H159.572V100.276V102.321H155.482H151.393V100.276V98.2317H149.348H147.304V96.1871V94.1424H145.259H143.214V96.1871V98.2317H145.259H147.304V100.276V102.321H149.348H151.393V104.366V106.41H147.304H143.214V108.455V110.5H145.259H147.304V112.544V114.589H143.214H139.125V112.544V110.5H137.08H135.036V112.544V114.589H137.08H139.125V116.634V118.678H143.214H147.304V116.634V114.589H149.348H151.393V110.5V106.41H153.438H155.482V108.455V110.5H157.527H159.572V108.455V106.41H161.616H163.661V104.366V102.321H167.75H171.839V100.276V98.2317H173.884H175.929V96.1871V94.1424H177.973H180.018V92.0978V90.0532H184.107H188.197V88.0085V85.9639H190.241H192.286V83.9192V81.8746H190.241H188.197V83.9192ZM310.875 83.9192V85.9639H312.92H314.964V83.9192V81.8746H312.92H310.875V83.9192ZM126.857 88.0085V90.0532H124.813H122.768V92.0978V94.1424H124.813H126.857V92.0978V90.0532H128.902H130.947V88.0085V85.9639H128.902H126.857V88.0085ZM261.804 92.0978V94.1424H257.714H253.625V96.1871V98.2317H251.58H249.536V100.276V102.321H245.447H241.357V104.366V106.41H237.268H233.179V108.455V110.5H229.089H225V112.544V114.589H222.955H220.911V116.634V118.678H216.822H212.732V120.723V122.767H210.688H208.643V124.812V126.857H212.732H216.822V124.812V122.767H218.866H220.911V120.723V118.678H225H229.089V116.634V114.589H231.134H233.179V116.634V118.678H235.223H237.268V116.634V114.589H235.223H233.179V112.544V110.5H237.268H241.357V108.455V106.41H245.447H249.536V104.366V102.321H253.625H257.714V100.276V98.2317H261.804H265.893V96.1871V94.1424H269.982H274.072V92.0978V90.0532H267.938H261.804V92.0978ZM323.143 96.1871V98.2317H325.188H327.232V96.1871V94.1424H325.188H323.143V96.1871ZM130.947 104.366V106.41H132.991H135.036V104.366V102.321H132.991H130.947V104.366ZM339.5 104.366V106.41H341.545H343.589V104.366V102.321H341.545H339.5V104.366ZM110.5 108.455V110.5H112.545H114.589V108.455V106.41H112.545H110.5V108.455ZM372.214 110.5V114.589H374.259H376.304V118.678V122.767H378.348H380.393V120.723V118.678H382.438H384.482V116.634V114.589H380.393H376.304V110.5V106.41H374.259H372.214V110.5ZM331.322 116.634V118.678H333.366H335.411V116.634V114.589H333.366H331.322V116.634ZM359.947 116.634V118.678H361.991H364.036V122.767V126.857H361.991H359.947V128.901V130.946H361.991H364.036V128.901V126.857H366.08H368.125V122.767V118.678H366.08H364.036V116.634V114.589H361.991H359.947V116.634ZM323.143 124.812V126.857H325.188H327.232V124.812V122.767H325.188H323.143V124.812ZM261.804 128.901V130.946H263.848H265.893V128.901V126.857H263.848H261.804V128.901ZM331.322 128.901V130.946H333.366H335.411V128.901V126.857H333.366H331.322V128.901ZM269.982 132.991V135.035H272.027H274.072V132.991V130.946H272.027H269.982V132.991ZM286.339 132.991V135.035H288.384H290.429V132.991V130.946H288.384H286.339V132.991ZM306.786 132.991V135.035H308.83H310.875V132.991V130.946H308.83H306.786V132.991ZM323.143 132.991V135.035H321.098H319.054V137.08V139.125H321.098H323.143V137.08V135.035H325.188H327.232V137.08V139.125H329.277H331.322V141.169V143.214H333.366H335.411V141.169V139.125H333.366H331.322V137.08V135.035H329.277H327.232V132.991V130.946H325.188H323.143V132.991ZM278.161 137.08V139.125H280.205H282.25V143.214V147.303H280.205H278.161V145.259V143.214H276.116H274.072V141.169V139.125H272.027H269.982V141.169V143.214H267.938H265.893V145.259V147.303H267.938H269.982V145.259V143.214H272.027H274.072V145.259V147.303H276.116H278.161V149.348V151.392H280.205H282.25V149.348V147.303H284.295H286.339V145.259V143.214H288.384H290.429V145.259V147.303H292.473H294.518V149.348V151.392H296.563H298.607V149.348V147.303H296.563H294.518V145.259V143.214H292.473H290.429V141.169V139.125H286.339H282.25V137.08V135.035H280.205H278.161V137.08ZM294.518 137.08V139.125H296.563H298.607V141.169V143.214H300.652H302.697V141.169V139.125H300.652H298.607V137.08V135.035H296.563H294.518V137.08ZM200.464 141.169V143.214H198.42H196.375V145.259V147.303H198.42H200.464V145.259V143.214H202.509H204.554V141.169V139.125H202.509H200.464V141.169ZM347.679 141.169V143.214H349.723H351.768V141.169V139.125H349.723H347.679V141.169ZM323.143 145.259V147.303H325.188H327.232V145.259V143.214H325.188H323.143V145.259ZM188.197 149.348V151.392H190.241H192.286V149.348V147.303H190.241H188.197V149.348ZM335.411 149.348V151.392H337.455H339.5V153.437V155.482H341.545H343.589V153.437V151.392H341.545H339.5V149.348V147.303H337.455H335.411V149.348ZM196.375 153.437V155.482H198.42H200.464V157.526V159.571H202.509H204.554V157.526V155.482H206.598H208.643V153.437V151.392H206.598H204.554V153.437V155.482H202.509H200.464V153.437V151.392H198.42H196.375V153.437ZM245.447 153.437V155.482H247.491H249.536V153.437V151.392H247.491H245.447V153.437ZM253.625 153.437V155.482H257.714H261.804V153.437V151.392H257.714H253.625V153.437ZM269.982 153.437V155.482H272.027H274.072V153.437V151.392H272.027H269.982V153.437ZM286.339 153.437V155.482H288.384H290.429V153.437V151.392H288.384H286.339V153.437ZM184.107 157.526V159.571H186.152H188.197V157.526V155.482H186.152H184.107V157.526ZM216.822 157.526V159.571H214.777H212.732V161.616V163.66H214.777H216.822V161.616V159.571H220.911H225V157.526V155.482H220.911H216.822V157.526ZM229.089 161.616V163.66H231.134H233.179V161.616V159.571H231.134H229.089V161.616ZM237.268 161.616V163.66H239.313H241.357V161.616V159.571H239.313H237.268V161.616ZM245.447 161.616V163.66H247.491H249.536V161.616V159.571H247.491H245.447V161.616ZM257.714 161.616V163.66H255.67H253.625V165.705V167.75H257.714H261.804V163.66V159.571H259.759H257.714V161.616ZM265.893 161.616V163.66H267.938H269.982V161.616V159.571H267.938H265.893V161.616ZM175.929 165.705V167.75H180.018H184.107V165.705V163.66H180.018H175.929V165.705ZM339.5 165.705V167.75H341.545H343.589V169.794V171.839H345.634H347.679V173.884V175.928H349.723H351.768V173.884V171.839H349.723H347.679V169.794V167.75H345.634H343.589V165.705V163.66H341.545H339.5V165.705ZM163.661 169.794V171.839H161.616H159.572V173.884V175.928H161.616H163.661V177.973V180.017H165.705H167.75V177.973V175.928H165.705H163.661V173.884V171.839H165.705H167.75V169.794V167.75H165.705H163.661V169.794ZM212.732 169.794V171.839H210.688H208.643V173.884V175.928H206.598H204.554V177.973V180.017H206.598H208.643V182.062V184.107H204.554H200.464V186.151V188.196H198.42H196.375V186.151V184.107H194.33H192.286V188.196V192.285H190.241H188.197V190.241V188.196H186.152H184.107V186.151V184.107H182.063H180.018V186.151V188.196H182.063H184.107V190.241V192.285H182.063H180.018V194.33V196.375H177.973H175.929V194.33V192.285H173.884H171.839V196.375V200.464H169.795H167.75V204.553V208.642H165.705H163.661V206.598V204.553H161.616H159.572V206.598V208.642H161.616H163.661V210.687V212.732H165.705H167.75V210.687V208.642H169.795H171.839V206.598V204.553H173.884H175.929V202.509V200.464H177.973H180.018V204.553V208.642H182.063H184.107V210.687V212.732H186.152H188.197V214.776V216.821H190.241H192.286V218.866V220.91H194.33H196.375V218.866V216.821H194.33H192.286V212.732V208.642H194.33H196.375V210.687V212.732H198.42H200.464V210.687V208.642H198.42H196.375V204.553V200.464H198.42H200.464V202.509V204.553H202.509H204.554V206.598V208.642H206.598H208.643V206.598V204.553H206.598H204.554V202.509V200.464H202.509H200.464V198.419V196.375H198.42H196.375V198.419V200.464H194.33H192.286V196.375V192.285H196.375H200.464V190.241V188.196H204.554H208.643V186.151V184.107H210.688H212.732V188.196V192.285H214.777H216.822V188.196V184.107H218.866H220.911V182.062V180.017H222.955H225V182.062V184.107H227.045H229.089V186.151V188.196H231.134H233.179V186.151V184.107H231.134H229.089V182.062V180.017H227.045H225V177.973V175.928H222.955H220.911V173.884V171.839H225H229.089V173.884V175.928H231.134H233.179V177.973V180.017H235.223H237.268V175.928V171.839H239.313H241.357V173.884V175.928H243.402H245.447V173.884V171.839H247.491H249.536V169.794V167.75H247.491H245.447V169.794V171.839H243.402H241.357V169.794V167.75H239.313H237.268V169.794V171.839H235.223H233.179V169.794V167.75H227.045H220.911V169.794V171.839H218.866H216.822V169.794V167.75H214.777H212.732V169.794ZM282.25 169.794V171.839H284.295H286.339V169.794V167.75H284.295H282.25V169.794ZM212.732 173.884V175.928H210.688H208.643V177.973V180.017H210.688H212.732V182.062V184.107H214.777H216.822V182.062V180.017H218.866H220.911V177.973V175.928H218.866H216.822V173.884V171.839H214.777H212.732V173.884ZM335.411 173.884V175.928H337.455H339.5V177.973V180.017H337.455H335.411V182.062V184.107H337.455H339.5V182.062V180.017H341.545H343.589V177.973V175.928H341.545H339.5V173.884V171.839H337.455H335.411V173.884ZM171.839 177.973V180.017H173.884H175.929V177.973V175.928H173.884H171.839V177.973ZM212.732 177.973V180.017H214.777H216.822V177.973V175.928H214.777H212.732V177.973ZM278.161 177.973V180.017H280.205H282.25V177.973V175.928H280.205H278.161V177.973ZM171.839 186.151V188.196H173.884H175.929V186.151V184.107H173.884H171.839V186.151ZM249.536 186.151V188.196H251.58H253.625V186.151V184.107H251.58H249.536V186.151ZM319.054 188.196V192.285H317.009H314.964V196.375V200.464H317.009H319.054V202.509V204.553H317.009H314.964V206.598V208.642H317.009H319.054V206.598V204.553H321.098H323.143V202.509V200.464H321.098H319.054V198.419V196.375H321.098H323.143V194.33V192.285H325.188H327.232V190.241V188.196H329.277H331.322V186.151V184.107H329.277H327.232V186.151V188.196H325.188H323.143V186.151V184.107H321.098H319.054V188.196ZM147.304 190.241V192.285H145.259H143.214V194.33V196.375H145.259H147.304V194.33V192.285H149.348H151.393V190.241V188.196H149.348H147.304V190.241ZM220.911 190.241V192.285H222.955H225V190.241V188.196H222.955H220.911V190.241ZM261.804 190.241V192.285H263.848H265.893V190.241V188.196H263.848H261.804V190.241ZM286.339 190.241V192.285H290.429H294.518V190.241V188.196H290.429H286.339V190.241ZM298.607 192.285V196.375H294.518H290.429V198.419V200.464H294.518H298.607V198.419V196.375H302.697H306.786V198.419V200.464H308.83H310.875V196.375V192.285H306.786H302.697V190.241V188.196H300.652H298.607V192.285ZM184.107 194.33V196.375H182.063H180.018V198.419V200.464H184.107H188.197V202.509V204.553H186.152H184.107V206.598V208.642H186.152H188.197V206.598V204.553H190.241H192.286V202.509V200.464H190.241H188.197V196.375V192.285H186.152H184.107V194.33ZM204.554 194.33V196.375H206.598H208.643V198.419V200.464H210.688H212.732V198.419V196.375H210.688H208.643V194.33V192.285H206.598H204.554V194.33ZM347.679 194.33V196.375H349.723H351.768V194.33V192.285H349.723H347.679V194.33ZM155.482 198.419V200.464H157.527H159.572V198.419V196.375H157.527H155.482V198.419ZM249.536 198.419V200.464H251.58H253.625V198.419V196.375H251.58H249.536V198.419ZM282.25 198.419V200.464H284.295H286.339V198.419V196.375H284.295H282.25V198.419ZM147.304 206.598V208.642H149.348H151.393V206.598V204.553H149.348H147.304V206.598ZM282.25 208.642V212.732H284.295H286.339V210.687V208.642H288.384H290.429V206.598V204.553H286.339H282.25V208.642ZM294.518 208.642V212.732H296.563H298.607V208.642V204.553H296.563H294.518V208.642ZM130.947 210.687V212.732H132.991H135.036V210.687V208.642H132.991H130.947V210.687ZM139.125 210.687V212.732H141.17H143.214V210.687V208.642H141.17H139.125V210.687ZM245.447 212.732V216.821H243.402H241.357V218.866V220.91H245.447H249.536V222.955V225H253.625H257.714V222.955V220.91H253.625H249.536V216.821V212.732H251.58H253.625V210.687V208.642H249.536H245.447V212.732ZM274.072 212.732V216.821H276.116H278.161V218.866V220.91H274.072H269.982V222.955V225H267.938H265.893V227.044V229.089H267.938H269.982V227.044V225H274.072H278.161V222.955V220.91H282.25H286.339V222.955V225H288.384H290.429V222.955V220.91H288.384H286.339V218.866V216.821H282.25H278.161V212.732V208.642H276.116H274.072V212.732ZM265.893 214.776V216.821H263.848H261.804V218.866V220.91H263.848H265.893V218.866V216.821H267.938H269.982V214.776V212.732H267.938H265.893V214.776ZM302.697 214.776V216.821H304.741H306.786V214.776V212.732H304.741H302.697V214.776ZM339.5 214.776V216.821H341.545H343.589V214.776V212.732H341.545H339.5V214.776ZM126.857 218.866V220.91H128.902H130.947V218.866V216.821H128.902H126.857V218.866ZM135.036 218.866V220.91H137.08H139.125V218.866V216.821H137.08H135.036V218.866ZM155.482 218.866V220.91H151.393H147.304V222.955V225H151.393H155.482V227.044V229.089H157.527H159.572V227.044V225H161.616H163.661V222.955V220.91H161.616H159.572V218.866V216.821H157.527H155.482V218.866ZM171.839 218.866V220.91H173.884H175.929V218.866V216.821H173.884H171.839V218.866ZM294.518 218.866V220.91H296.563H298.607V222.955V225H300.652H302.697V227.044V229.089H304.741H306.786V227.044V225H304.741H302.697V222.955V220.91H300.652H298.607V218.866V216.821H296.563H294.518V218.866ZM155.482 222.955V225H157.527H159.572V222.955V220.91H157.527H155.482V222.955ZM225 222.955V225H222.955H220.911V227.044V229.089H218.866H216.822V231.134V233.178H220.911H225V231.134V229.089H227.045H229.089V225V220.91H227.045H225V222.955ZM233.179 227.044V233.178H231.134H229.089V235.223V237.267H233.179H237.268V239.312V241.357H239.313H241.357V239.312V237.267H243.402H245.447V239.312V241.357H247.491H249.536V239.312V237.267H251.58H253.625V239.312V241.357H255.67H257.714V239.312V237.267H255.67H253.625V235.223V233.178H255.67H257.714V231.134V229.089H255.67H253.625V231.134V233.178H247.491H241.357V231.134V229.089H243.402H245.447V227.044V225H243.402H241.357V227.044V229.089H239.313H237.268V225V220.91H235.223H233.179V227.044ZM331.322 222.955V225H333.366H335.411V222.955V220.91H333.366H331.322V222.955ZM118.679 227.044V229.089H120.723H122.768V227.044V225H120.723H118.679V227.044ZM188.197 231.134V233.178H190.241H192.286V231.134V229.089H190.241H188.197V231.134ZM282.25 231.134V233.178H284.295H286.339V231.134V229.089H284.295H282.25V231.134ZM167.75 235.223V237.267H169.795H171.839V235.223V233.178H169.795H167.75V235.223ZM237.268 235.223V237.267H239.313H241.357V235.223V233.178H239.313H237.268V235.223ZM135.036 239.312V241.357H137.08H139.125V239.312V237.267H137.08H135.036V239.312ZM155.482 239.312V241.357H157.527H159.572V239.312V237.267H157.527H155.482V239.312ZM196.375 239.312V241.357H194.33H192.286V243.401V245.446H194.33H196.375V247.491V249.535H198.42H200.464V247.491V245.446H202.509H204.554V247.491V249.535H206.598H208.643V251.58V253.625H210.688H212.732V251.58V249.535H210.688H208.643V247.491V245.446H206.598H204.554V243.401V241.357H202.509H200.464V239.312V237.267H198.42H196.375V239.312ZM175.929 243.401V245.446H177.973H180.018V243.401V241.357H177.973H175.929V243.401ZM184.107 243.401V245.446H186.152H188.197V243.401V241.357H186.152H184.107V243.401ZM196.375 243.401V245.446H198.42H200.464V243.401V241.357H198.42H196.375V243.401ZM212.732 243.401V245.446H214.777H216.822V243.401V241.357H214.777H212.732V243.401ZM147.304 247.491V249.535H149.348H151.393V247.491V245.446H149.348H147.304V247.491ZM155.482 247.491V249.535H157.527H159.572V251.58V253.625H161.616H163.661V251.58V249.535H161.616H159.572V247.491V245.446H157.527H155.482V247.491ZM306.786 247.491V249.535H308.83H310.875V247.491V245.446H308.83H306.786V247.491ZM139.125 251.58V253.625H141.17H143.214V255.669V257.714H145.259H147.304V255.669V253.625H145.259H143.214V251.58V249.535H141.17H139.125V251.58ZM167.75 251.58V253.625H169.795H171.839V251.58V249.535H169.795H167.75V251.58ZM188.197 251.58V253.625H190.241H192.286V251.58V249.535H190.241H188.197V251.58ZM298.607 251.58V253.625H294.518H290.429V255.669V257.714H292.473H294.518V259.759V261.803H296.563H298.607V257.714V253.625H300.652H302.697V251.58V249.535H300.652H298.607V251.58ZM180.018 255.669V257.714H182.063H184.107V259.759V261.803H186.152H188.197V263.848V265.892H190.241H192.286V263.848V261.803H190.241H188.197V259.759V257.714H186.152H184.107V255.669V253.625H182.063H180.018V255.669ZM269.982 255.669V257.714H272.027H274.072V255.669V253.625H272.027H269.982V255.669ZM282.25 255.669V257.714H284.295H286.339V255.669V253.625H284.295H282.25V255.669ZM155.482 259.759V261.803H157.527H159.572V259.759V257.714H157.527H155.482V259.759ZM196.375 259.759V261.803H198.42H200.464V259.759V257.714H198.42H196.375V259.759ZM220.911 259.759V261.803H222.955H225V259.759V257.714H222.955H220.911V259.759ZM135.036 267.937V269.982H137.08H139.125V267.937V265.892H137.08H135.036V267.937ZM212.732 267.937V269.982H214.777H216.822V267.937V265.892H214.777H212.732V267.937ZM175.929 272.026V274.071H177.973H180.018V272.026V269.982H177.973H175.929V272.026ZM245.447 272.026V274.071H247.491H249.536V272.026V269.982H247.491H245.447V272.026ZM102.321 276.116V278.16H104.366H106.411V276.116V274.071H104.366H102.321V276.116ZM114.589 276.116V278.16H116.634H118.679V280.205V282.25H116.634H114.589V284.294V286.339H116.634H118.679V288.384V290.428H120.723H122.768V288.384V286.339H120.723H118.679V284.294V282.25H120.723H122.768V280.205V278.16H120.723H118.679V276.116V274.071H116.634H114.589V276.116ZM126.857 276.116V278.16H128.902H130.947V276.116V274.071H128.902H126.857V276.116ZM143.214 276.116V278.16H145.259H147.304V276.116V274.071H145.259H143.214V276.116ZM225 276.116V278.16H227.045H229.089V276.116V274.071H227.045H225V276.116ZM12.3572 280.205V282.25H14.4019H16.4465V280.205V278.16H14.4019H12.3572V280.205ZM135.036 280.205V282.25H137.08H139.125V280.205V278.16H137.08H135.036V280.205ZM151.393 280.205V282.25H153.438H155.482V280.205V278.16H153.438H151.393V280.205ZM139.125 288.384V290.428H141.17H143.214V288.384V286.339H141.17H139.125V288.384ZM61.4286 292.473V294.517H63.4733H65.5179V292.473V290.428H63.4733H61.4286V292.473ZM126.857 292.473V294.517H128.902H130.947V292.473V290.428H128.902H126.857V292.473ZM49.1608 296.562V298.607H51.2054H53.2501V296.562V294.517H51.2054H49.1608V296.562ZM28.7144 308.83V310.875H30.759H32.8036V308.83V306.785H30.759H28.7144V308.83ZM49.1608 312.919V314.964H51.2054H53.2501V312.919V310.875H51.2054H49.1608V312.919Z" fill="white"></path>
</svg>